<?xml version="1.0" encoding="UTF-8" standalone="no"?>
<!DOCTYPE svg PUBLIC "-//W3C//DTD SVG 1.1//EN" "http://www.w3.org/Graphics/SVG/1.1/DTD/svg11.dtd">
<svg version="1.1" xmlns="http://www.w3.org/2000/svg" xmlns:xlink="http://www.w3.org/1999/xlink" preserveAspectRatio="xMidYMid meet" viewBox="0 0 640 640" width="640" height="640"><defs><path d="M578.71 322C578.71 464.79 462.79 580.71 320 580.71C177.21 580.71 61.29 464.79 61.29 322C61.29 179.21 177.21 63.29 320 63.29C462.79 63.29 578.71 179.21 578.71 322Z" id="f25AqfnNxG"></path><linearGradient id="gradientgrXtaAI1L" gradientUnits="userSpaceOnUse" x1="54.62" y1="47.47" x2="320" y2="580.71"><stop style="stop-color: #426689;stop-opacity: 1" offset="0%"></stop><stop style="stop-color: #31a6c6;stop-opacity: 1" offset="100%"></stop></linearGradient><path d="M320 395.25C433.06 395.25 524.85 362.48 524.85 322.13C524.85 281.78 433.06 249.01 320 249.01C206.94 249.01 115.15 281.78 115.15 322.13C115.15 362.48 206.94 395.25 320 395.25Z" id="dcUWq9tbr"></path><path d="M382.18 282.92C438.48 380.97 455.77 476.89 420.77 496.98C385.78 517.07 311.66 453.78 255.37 355.73C199.07 257.68 181.78 161.76 216.78 141.67C251.77 121.58 325.89 184.87 382.18 282.92Z" id="a2OQu6lG6E"></path><path d="M255.37 282.92C199.07 380.97 181.78 476.89 216.78 496.98C251.77 517.07 325.89 453.78 382.18 355.73C438.48 257.68 455.77 161.76 420.77 141.67C385.78 121.58 311.66 184.87 255.37 282.92Z" id="abZmufORD"></path><path d="M354.47 322C354.47 342.08 338.37 358.38 318.54 358.38C298.7 358.38 282.6 342.08 282.6 322C282.6 301.92 298.7 285.62 318.54 285.62C338.37 285.62 354.47 301.92 354.47 322Z" id="c2e8wjcqDJ"></path></defs><g><g><g><g><filter id="shadow13697078" x="17.29" y="19.29" width="606.42" height="611.42" filterUnits="userSpaceOnUse" primitiveUnits="userSpaceOnUse"><feFlood></feFlood><feComposite in2="SourceAlpha" operator="in"></feComposite><feGaussianBlur stdDeviation="3.46"></feGaussianBlur><feOffset dx="1" dy="6" result="afterOffset"></feOffset><feFlood flood-color="#333333" flood-opacity="0.36"></feFlood><feComposite in2="afterOffset" operator="in"></feComposite><feMorphology operator="dilate" radius="9"></feMorphology><feComposite in2="SourceAlpha" operator="out"></feComposite></filter><path d="M578.71 322C578.71 464.79 462.79 580.71 320 580.71C177.21 580.71 61.29 464.79 61.29 322C61.29 179.21 177.21 63.29 320 63.29C462.79 63.29 578.71 179.21 578.71 322Z" id="c2q33KbElT" fill="white" fill-opacity="1" filter="url(#shadow13697078)"></path></g><use xlink:href="#f25AqfnNxG" opacity="1" fill="url(#gradientgrXtaAI1L)"></use><g><use xlink:href="#f25AqfnNxG" opacity="1" fill-opacity="0" stroke="#ffffff" stroke-width="20" stroke-opacity="0.94"></use></g></g><g><g><use xlink:href="#dcUWq9tbr" opacity="1" fill-opacity="0" stroke="#ffffff" stroke-width="21" stroke-opacity="0.78"></use></g></g><g><g><use xlink:href="#a2OQu6lG6E" opacity="1" fill-opacity="0" stroke="#ffffff" stroke-width="21" stroke-opacity="0.74"></use></g></g><g><g><use xlink:href="#abZmufORD" opacity="1" fill-opacity="0" stroke="#ffffff" stroke-width="21" stroke-opacity="0.71"></use></g></g><g><g><filter id="shadow7842639" x="233.6" y="236.62" width="170.87" height="171.76" filterUnits="userSpaceOnUse" primitiveUnits="userSpaceOnUse"><feFlood></feFlood><feComposite in2="SourceAlpha" operator="in"></feComposite><feGaussianBlur stdDeviation="4.58"></feGaussianBlur><feOffset dx="1" dy="1" result="afterOffset"></feOffset><feFlood flood-color="#000000" flood-opacity="0.5"></feFlood><feComposite in2="afterOffset" operator="in"></feComposite><feMorphology operator="dilate" radius="1"></feMorphology><feComposite in2="SourceAlpha" operator="out"></feComposite></filter><path d="M354.47 322C354.47 342.08 338.37 358.38 318.54 358.38C298.7 358.38 282.6 342.08 282.6 322C282.6 301.92 298.7 285.62 318.54 285.62C338.37 285.62 354.47 301.92 354.47 322Z" id="b44G9bHQW" fill="white" fill-opacity="1" filter="url(#shadow7842639)"></path></g><use xlink:href="#c2e8wjcqDJ" opacity="1" fill="#ffffff" fill-opacity="1"></use><g><use xlink:href="#c2e8wjcqDJ" opacity="1" fill-opacity="0" stroke="#61dafb" stroke-width="12" stroke-opacity="0.77"></use></g></g></g></g></svg>